<svg width="300" height="300" viewBox="0 0 300 300" fill="none" xmlns="http://www.w3.org/2000/svg">
<path d="M120.14 201.161C102.342 196.262 83.4188 202.93 77.0511 216.155C70.6834 229.38 79.6049 243.464 97.4029 248.363C115.201 253.262 134.023 246.824 140.39 233.599C146.758 220.373 137.938 206.068 120.14 201.169V201.161Z" fill="#00E1C8"/>
<path d="M188.125 53.3692C157.108 44.8302 131.176 52.5357 119.712 76.3327C113.727 88.7415 107.911 109.409 108.203 155.973L108.282 178.512C108.304 183.53 112.456 188.012 118.7 189.721C127.7 192.196 137.521 188.122 139.58 181.055L142.325 171.623C146.353 157.785 158.56 145.895 175.739 140.231C202.593 131.368 216.318 113.916 220.987 104.221C232.451 80.4236 218.692 61.7892 188.125 53.3692ZM176.661 98.3096C165.186 98.3096 155.893 91.276 155.893 82.6094C155.893 73.9428 165.197 66.9092 176.661 66.9092C188.125 66.9092 197.429 73.9428 197.429 82.6094C197.429 91.276 188.125 98.3096 176.661 98.3096Z" fill="#00E1C8"/>
</svg>
